REM DIRINDEX 1\2\4\8,1\2\4\9,1\2\4\10,1\2\5\11,1\2\5\12,1\2\5\13,1\2\5\14,1\2\5\15,1\3\6\16,1\3\6\17,1\3\6\18,1\3\7\19,1\3\7\20,1\3\7\21,1\3\7\22,1\3\7\23
REM DIRNAME "folder01","folder02","folder03","folder04","folder05","folder06","folder07","folder08","folder09","folder10","folder11","folder12","folder13","folder14","folder15","folder16","folder17","folder18","folder19","folder20","folder21","folder22","folder23"
TITLE ""
FILE "LR_black_phrase_B03.mp3" MP3
  TRACK 01 AUDIO
    TITLE "0:"
    INDEX 01 00:00:00
  TRACK 02 AUDIO
    TITLE "19:cjc171_12801"
    INDEX 01 00:00:14
  TRACK 03 AUDIO
    TITLE "0:"
    INDEX 01 00:01:37
  TRACK 04 AUDIO
    TITLE "20:cjc171_12802"
    INDEX 01 00:02:01
  TRACK 05 AUDIO
    TITLE "0:"
    INDEX 01 00:05:33
  TRACK 06 AUDIO
    TITLE "21:cjc171_12803"
    INDEX 01 00:06:32
  TRACK 07 AUDIO
    TITLE "0:"
    INDEX 01 00:08:27
  TRACK 08 AUDIO
    TITLE "22:cjc171_12804"
    INDEX 01 00:08:67
  TRACK 09 AUDIO
    TITLE "0:"
    INDEX 01 00:11:32
  TRACK 10 AUDIO
    TITLE "23:cjc171_12805"
    INDEX 01 00:11:63
  TRACK 11 AUDIO
    TITLE "0:"
    INDEX 01 00:14:26
  TRACK 12 AUDIO
    TITLE "19:cjc171_12806"
    INDEX 01 00:15:31
  TRACK 13 AUDIO
    TITLE "0:"
    INDEX 01 00:16:70
  TRACK 14 AUDIO
    TITLE "20:cjc171_12807"
    INDEX 01 00:17:34
  TRACK 15 AUDIO
    TITLE "0:"
    INDEX 01 00:20:21
  TRACK 16 AUDIO
    TITLE "21:cjc171_12808"
    INDEX 01 00:21:22
  TRACK 17 AUDIO
    TITLE "0:"
    INDEX 01 00:23:27
  TRACK 18 AUDIO
    TITLE "22:cjc171_12809"
    INDEX 01 00:23:64
  TRACK 19 AUDIO
    TITLE "0:"
    INDEX 01 00:26:04
  TRACK 20 AUDIO
    TITLE "23:cjc171_12810"
    INDEX 01 00:26:35
  TRACK 21 AUDIO
    TITLE "0:"
    INDEX 01 00:28:48
  TRACK 22 AUDIO
    TITLE "19:cjc171_12811"
    INDEX 01 00:29:57
  TRACK 23 AUDIO
    TITLE "0:"
    INDEX 01 00:30:70
  TRACK 24 AUDIO
    TITLE "20:cjc171_12812"
    INDEX 01 00:31:34
  TRACK 25 AUDIO
    TITLE "0:"
    INDEX 01 00:33:67
  TRACK 26 AUDIO
    TITLE "21:cjc171_12813"
    INDEX 01 00:34:68
  TRACK 27 AUDIO
    TITLE "0:"
    INDEX 01 00:36:49
  TRACK 28 AUDIO
    TITLE "22:cjc171_12814"
    INDEX 01 00:37:11
  TRACK 29 AUDIO
    TITLE "0:"
    INDEX 01 00:39:18
  TRACK 30 AUDIO
    TITLE "23:cjc171_12815"
    INDEX 01 00:39:48
  TRACK 31 AUDIO
    TITLE "0:"
    INDEX 01 00:41:52
  TRACK 32 AUDIO
    TITLE "19:cjc171_12816"
    INDEX 01 00:42:58
  TRACK 33 AUDIO
    TITLE "0:"
    INDEX 01 00:43:75
  TRACK 34 AUDIO
    TITLE "20:cjc171_12817"
    INDEX 01 00:44:39
  TRACK 35 AUDIO
    TITLE "0:"
    INDEX 01 00:45:74
  TRACK 36 AUDIO
    TITLE "21:cjc171_12818"
    INDEX 01 00:46:73
  TRACK 37 AUDIO
    TITLE "0:"
    INDEX 01 00:49:32
  TRACK 38 AUDIO
    TITLE "22:cjc171_12819"
    INDEX 01 00:49:75
  TRACK 39 AUDIO
    TITLE "0:"
    INDEX 01 00:52:11
  TRACK 40 AUDIO
    TITLE "23:cjc171_12820"
    INDEX 01 00:52:40
  TRACK 41 AUDIO
    TITLE "0:"
    INDEX 01 00:54:53
  TRACK 42 AUDIO
    TITLE "19:cjc171_12821"
    INDEX 01 00:55:52
  TRACK 43 AUDIO
    TITLE "0:"
    INDEX 01 00:57:04
  TRACK 44 AUDIO
    TITLE "20:cjc171_12822"
    INDEX 01 00:57:47
  TRACK 45 AUDIO
    TITLE "0:"
    INDEX 01 00:59:29
  TRACK 46 AUDIO
    TITLE "21:cjc171_12823"
    INDEX 01 01:00:30
  TRACK 47 AUDIO
    TITLE "0:"
    INDEX 01 01:03:19
  TRACK 48 AUDIO
    TITLE "22:cjc171_12824"
    INDEX 01 01:03:52
  TRACK 49 AUDIO
    TITLE "0:"
    INDEX 01 01:06:31
  TRACK 50 AUDIO
    TITLE "23:cjc171_12825"
    INDEX 01 01:06:50
  TRACK 51 AUDIO
    TITLE "0:"
    INDEX 01 01:09:27
  TRACK 52 AUDIO
    TITLE "19:cjc171_12826"
    INDEX 01 01:10:23
  TRACK 53 AUDIO
    TITLE "0:"
    INDEX 01 01:11:52
  TRACK 54 AUDIO
    TITLE "20:cjc171_12827"
    INDEX 01 01:12:22
  TRACK 55 AUDIO
    TITLE "0:"
    INDEX 01 01:13:27
  TRACK 56 AUDIO
    TITLE "21:cjc171_12828"
    INDEX 01 01:14:26
  TRACK 57 AUDIO
    TITLE "0:"
    INDEX 01 01:15:71
  TRACK 58 AUDIO
    TITLE "22:cjc171_12829"
    INDEX 01 01:16:29
  TRACK 59 AUDIO
    TITLE "0:"
    INDEX 01 01:18:10
  TRACK 60 AUDIO
    TITLE "23:cjc171_12830"
    INDEX 01 01:18:30
  TRACK 61 AUDIO
    TITLE "0:"
    INDEX 01 01:20:11
  TRACK 62 AUDIO
    TITLE "19:cjc171_12831"
    INDEX 01 01:21:11
  TRACK 63 AUDIO
    TITLE "0:"
    INDEX 01 01:22:28
  TRACK 64 AUDIO
    TITLE "20:cjc171_12832"
    INDEX 01 01:22:67
  TRACK 65 AUDIO
    TITLE "0:"
    INDEX 01 01:25:28
  TRACK 66 AUDIO
    TITLE "21:cjc171_12833"
    INDEX 01 01:26:22
  TRACK 67 AUDIO
    TITLE "0:"
    INDEX 01 01:29:12
  TRACK 68 AUDIO
    TITLE "22:cjc171_12834"
    INDEX 01 01:29:51
  TRACK 69 AUDIO
    TITLE "0:"
    INDEX 01 01:31:66
  TRACK 70 AUDIO
    TITLE "23:cjc171_12835"
    INDEX 01 01:32:20
  TRACK 71 AUDIO
    TITLE "0:"
    INDEX 01 01:34:33
  TRACK 72 AUDIO
    TITLE "19:cjc171_12836"
    INDEX 01 01:35:36
  TRACK 73 AUDIO
    TITLE "0:"
    INDEX 01 01:36:59
  TRACK 74 AUDIO
    TITLE "20:cjc171_12837"
    INDEX 01 01:37:25
  TRACK 75 AUDIO
    TITLE "0:"
    INDEX 01 01:38:54
  TRACK 76 AUDIO
    TITLE "21:cjc171_12838"
    INDEX 01 01:39:52
  TRACK 77 AUDIO
    TITLE "0:"
    INDEX 01 01:42:15
  TRACK 78 AUDIO
    TITLE "22:cjc171_12839"
    INDEX 01 01:42:54
  TRACK 79 AUDIO
    TITLE "0:"
    INDEX 01 01:45:01
  TRACK 80 AUDIO
    TITLE "23:cjc171_12840"
    INDEX 01 01:45:29
  TRACK 81 AUDIO
    TITLE "0:"
    INDEX 01 01:47:51
  TRACK 82 AUDIO
    TITLE "19:cjc171_12841"
    INDEX 01 01:48:55
  TRACK 83 AUDIO
    TITLE "0:"
    INDEX 01 01:49:68
  TRACK 84 AUDIO
    TITLE "20:cjc171_12842"
    INDEX 01 01:50:32
  TRACK 85 AUDIO
    TITLE "0:"
    INDEX 01 01:53:17
  TRACK 86 AUDIO
    TITLE "21:cjc171_12843"
    INDEX 01 01:54:14
  TRACK 87 AUDIO
    TITLE "0:"
    INDEX 01 01:56:15
  TRACK 88 AUDIO
    TITLE "22:cjc171_12844"
    INDEX 01 01:56:56
  TRACK 89 AUDIO
    TITLE "0:"
    INDEX 01 01:58:45
  TRACK 90 AUDIO
    TITLE "23:cjc171_12845"
    INDEX 01 01:58:75
  TRACK 91 AUDIO
    TITLE "0:"
    INDEX 01 02:00:66
  TRACK 92 AUDIO
    TITLE "19:cjc171_12846"
    INDEX 01 02:01:69
  TRACK 93 AUDIO
    TITLE "0:"
    INDEX 01 02:03:03
  TRACK 94 AUDIO
    TITLE "20:cjc171_12847"
    INDEX 01 02:03:42
  TRACK 95 AUDIO
    TITLE "0:"
    INDEX 01 02:05:71
  TRACK 96 AUDIO
    TITLE "21:cjc171_12848"
    INDEX 01 02:06:64
  TRACK 97 AUDIO
    TITLE "0:"
    INDEX 01 02:09:23
  TRACK 98 AUDIO
    TITLE "22:cjc171_12849"
    INDEX 01 02:09:63
  TRACK 99 AUDIO
    TITLE "0:"
    INDEX 01 02:12:73
  TRACK 100 AUDIO
    TITLE "23:cjc171_12850"
    INDEX 01 02:13:21
  TRACK 101 AUDIO
    TITLE "0:"
    INDEX 01 02:16:33
  TRACK 102 AUDIO
    TITLE "19:cjc171_12851"
    INDEX 01 02:17:33
  TRACK 103 AUDIO
    TITLE "0:"
    INDEX 01 02:18:34
  TRACK 104 AUDIO
    TITLE "20:cjc171_12852"
    INDEX 01 02:18:75
  TRACK 105 AUDIO
    TITLE "0:"
    INDEX 01 02:20:49
  TRACK 106 AUDIO
    TITLE "21:cjc171_12853"
    INDEX 01 02:21:48
  TRACK 107 AUDIO
    TITLE "0:"
    INDEX 01 02:24:19
  TRACK 108 AUDIO
    TITLE "22:cjc171_12854"
    INDEX 01 02:24:56
  TRACK 109 AUDIO
    TITLE "0:"
    INDEX 01 02:27:12
  TRACK 110 AUDIO
    TITLE "23:cjc171_12855"
    INDEX 01 02:27:37
  TRACK 111 AUDIO
    TITLE "0:"
    INDEX 01 02:29:67
  TRACK 112 AUDIO
    TITLE "19:cjc171_12856"
    INDEX 01 02:30:69
  TRACK 113 AUDIO
    TITLE "0:"
    INDEX 01 02:32:24
  TRACK 114 AUDIO
    TITLE "20:cjc171_12857"
    INDEX 01 02:32:64
  TRACK 115 AUDIO
    TITLE "0:"
    INDEX 01 02:34:04
  TRACK 116 AUDIO
    TITLE "21:cjc171_12858"
    INDEX 01 02:34:72
  TRACK 117 AUDIO
    TITLE "0:"
    INDEX 01 02:36:67
  TRACK 118 AUDIO
    TITLE "22:cjc171_12859"
    INDEX 01 02:37:33
  TRACK 119 AUDIO
    TITLE "0:"
    INDEX 01 02:39:68
  TRACK 120 AUDIO
    TITLE "23:cjc171_12860"
    INDEX 01 02:40:22
  TRACK 121 AUDIO
    TITLE "0:"
    INDEX 01 02:42:56
  TRACK 122 AUDIO
    TITLE "19:cjc171_12861"
    INDEX 01 02:43:58
  TRACK 123 AUDIO
    TITLE "0:"
    INDEX 01 02:44:69
  TRACK 124 AUDIO
    TITLE "20:cjc171_12862"
    INDEX 01 02:45:35
  TRACK 125 AUDIO
    TITLE "0:"
    INDEX 01 02:47:36
  TRACK 126 AUDIO
    TITLE "21:cjc171_12863"
    INDEX 01 02:48:35
  TRACK 127 AUDIO
    TITLE "0:"
    INDEX 01 02:50:66
  TRACK 128 AUDIO
    TITLE "22:cjc171_12864"
    INDEX 01 02:51:30
  TRACK 129 AUDIO
    TITLE "0:"
    INDEX 01 02:53:11
  TRACK 130 AUDIO
    TITLE "23:cjc171_12865"
    INDEX 01 02:53:40
  TRACK 131 AUDIO
    TITLE "0:"
    INDEX 01 02:55:20
  TRACK 132 AUDIO
    TITLE "19:cjc171_12866"
    INDEX 01 02:56:25
  TRACK 133 AUDIO
    TITLE "0:"
    INDEX 01 02:57:40
  TRACK 134 AUDIO
    TITLE "20:cjc171_12867"
    INDEX 01 02:58:04
  TRACK 135 AUDIO
    TITLE "0:"
    INDEX 01 02:59:74
  TRACK 136 AUDIO
    TITLE "21:cjc171_12868"
    INDEX 01 03:00:74
  TRACK 137 AUDIO
    TITLE "0:"
    INDEX 01 03:02:75
  TRACK 138 AUDIO
    TITLE "22:cjc171_12869"
    INDEX 01 03:03:41
  TRACK 139 AUDIO
    TITLE "0:"
    INDEX 01 03:06:02
  TRACK 140 AUDIO
    TITLE "23:cjc171_12870"
    INDEX 01 03:06:29
  TRACK 141 AUDIO
    TITLE "0:"
    INDEX 01 03:08:65
  TRACK 142 AUDIO
    TITLE "19:cjc171_12871"
    INDEX 01 03:09:73
  TRACK 143 AUDIO
    TITLE "0:"
    INDEX 01 03:11:01
  TRACK 144 AUDIO
    TITLE "20:cjc171_12872"
    INDEX 01 03:11:40
  TRACK 145 AUDIO
    TITLE "0:"
    INDEX 01 03:13:65
  TRACK 146 AUDIO
    TITLE "21:cjc171_12873"
    INDEX 01 03:14:62
  TRACK 147 AUDIO
    TITLE "0:"
    INDEX 01 03:16:49
  TRACK 148 AUDIO
    TITLE "22:cjc171_12874"
    INDEX 01 03:17:15
  TRACK 149 AUDIO
    TITLE "0:"
    INDEX 01 03:18:72
  TRACK 150 AUDIO
    TITLE "23:cjc171_12875"
    INDEX 01 03:19:26
  TRACK 151 AUDIO
    TITLE "0:"
    INDEX 01 03:21:05
  TRACK 152 AUDIO
    TITLE "19:cjc171_12876"
    INDEX 01 03:22:05
  TRACK 153 AUDIO
    TITLE "0:"
    INDEX 01 03:23:32
  TRACK 154 AUDIO
    TITLE "20:cjc171_12877"
    INDEX 01 03:24:02
  TRACK 155 AUDIO
    TITLE "0:"
    INDEX 01 03:26:61
  TRACK 156 AUDIO
    TITLE "21:cjc171_12878"
    INDEX 01 03:27:63
  TRACK 157 AUDIO
    TITLE "0:"
    INDEX 01 03:29:69
  TRACK 158 AUDIO
    TITLE "22:cjc171_12879"
    INDEX 01 03:30:34
  TRACK 159 AUDIO
    TITLE "0:"
    INDEX 01 03:32:72
  TRACK 160 AUDIO
    TITLE "23:cjc171_12880"
    INDEX 01 03:33:28
  TRACK 161 AUDIO
    TITLE "0:"
    INDEX 01 03:35:64
  TRACK 162 AUDIO
    TITLE "19:cjc171_12881"
    INDEX 01 03:36:70
  TRACK 163 AUDIO
    TITLE "0:"
    INDEX 01 03:38:06
  TRACK 164 AUDIO
    TITLE "20:cjc171_12882"
    INDEX 01 03:38:43
  TRACK 165 AUDIO
    TITLE "0:"
    INDEX 01 03:40:01
  TRACK 166 AUDIO
    TITLE "21:cjc171_12883"
    INDEX 01 03:40:75
  TRACK 167 AUDIO
    TITLE "0:"
    INDEX 01 03:43:70
  TRACK 168 AUDIO
    TITLE "22:cjc171_12884"
    INDEX 01 03:44:32
  TRACK 169 AUDIO
    TITLE "0:"
    INDEX 01 03:47:03
  TRACK 170 AUDIO
    TITLE "23:cjc171_12885"
    INDEX 01 03:47:26
  TRACK 171 AUDIO
    TITLE "0:"
    INDEX 01 03:49:72
  TRACK 172 AUDIO
    TITLE "19:cjc171_12886"
    INDEX 01 03:50:70
  TRACK 173 AUDIO
    TITLE "0:"
    INDEX 01 03:52:25
  TRACK 174 AUDIO
    TITLE "20:cjc171_12887"
    INDEX 01 03:52:69
  TRACK 175 AUDIO
    TITLE "0:"
    INDEX 01 03:54:26
  TRACK 176 AUDIO
    TITLE "21:cjc171_12888"
    INDEX 01 03:55:24
  TRACK 177 AUDIO
    TITLE "0:"
    INDEX 01 03:57:19
  TRACK 178 AUDIO
    TITLE "22:cjc171_12889"
    INDEX 01 03:57:54
  TRACK 179 AUDIO
    TITLE "0:"
    INDEX 01 03:59:51
  TRACK 180 AUDIO
    TITLE "23:cjc171_12890"
    INDEX 01 04:00:01
  TRACK 181 AUDIO
    TITLE "0:"
    INDEX 01 04:01:73
  TRACK 182 AUDIO
    TITLE "19:cjc171_12891"
    INDEX 01 04:03:06
  TRACK 183 AUDIO
    TITLE "0:"
    INDEX 01 04:04:29
  TRACK 184 AUDIO
    TITLE "20:cjc171_12892"
    INDEX 01 04:04:64
  TRACK 185 AUDIO
    TITLE "0:"
    INDEX 01 04:07:54
  TRACK 186 AUDIO
    TITLE "21:cjc171_12893"
    INDEX 01 04:08:54
  TRACK 187 AUDIO
    TITLE "0:"
    INDEX 01 04:10:66
  TRACK 188 AUDIO
    TITLE "22:cjc171_12894"
    INDEX 01 04:11:33
  TRACK 189 AUDIO
    TITLE "0:"
    INDEX 01 04:13:47
  TRACK 190 AUDIO
    TITLE "23:cjc171_12895"
    INDEX 01 04:14:02
  TRACK 191 AUDIO
    TITLE "0:"
    INDEX 01 04:16:18
  TRACK 192 AUDIO
    TITLE "19:cjc171_12896"
    INDEX 01 04:17:21
  TRACK 193 AUDIO
    TITLE "0:"
    INDEX 01 04:18:41
  TRACK 194 AUDIO
    TITLE "20:cjc171_12897"
    INDEX 01 04:19:05
  TRACK 195 AUDIO
    TITLE "0:"
    INDEX 01 04:20:43
  TRACK 196 AUDIO
    TITLE "21:cjc171_12898"
    INDEX 01 04:21:43
  TRACK 197 AUDIO
    TITLE "0:"
    INDEX 01 04:23:28
  TRACK 198 AUDIO
    TITLE "22:cjc171_12899"
    INDEX 01 04:23:67
  TRACK 199 AUDIO
    TITLE "0:"
    INDEX 01 04:25:50
  TRACK 200 AUDIO
    TITLE "23:cjc171_12900"
    INDEX 01 04:26:05
  TRACK 201 AUDIO
    TITLE "0:"
    INDEX 01 04:27:63
  TRACK 202 AUDIO
    TITLE "19:cjc171_12901"
    INDEX 01 04:28:66
  TRACK 203 AUDIO
    TITLE "0:"
    INDEX 01 04:30:05
  TRACK 204 AUDIO
    TITLE "20:cjc171_12902"
    INDEX 01 04:30:46
  TRACK 205 AUDIO
    TITLE "0:"
    INDEX 01 04:33:38
  TRACK 206 AUDIO
    TITLE "21:cjc171_12903"
    INDEX 01 04:34:34
  TRACK 207 AUDIO
    TITLE "0:"
    INDEX 01 04:37:10
  TRACK 208 AUDIO
    TITLE "22:cjc171_12904"
    INDEX 01 04:37:50
  TRACK 209 AUDIO
    TITLE "0:"
    INDEX 01 04:40:03
  TRACK 210 AUDIO
    TITLE "23:cjc171_12905"
    INDEX 01 04:40:32
  TRACK 211 AUDIO
    TITLE "0:"
    INDEX 01 04:42:61
  TRACK 212 AUDIO
    TITLE "19:cjc171_12906"
    INDEX 01 04:43:58
  TRACK 213 AUDIO
    TITLE "0:"
    INDEX 01 04:45:02
  TRACK 214 AUDIO
    TITLE "20:cjc171_12907"
    INDEX 01 04:45:37
  TRACK 215 AUDIO
    TITLE "0:"
    INDEX 01 04:48:18
  TRACK 216 AUDIO
    TITLE "21:cjc171_12908"
    INDEX 01 04:49:20
  TRACK 217 AUDIO
    TITLE "0:"
    INDEX 01 04:51:56
  TRACK 218 AUDIO
    TITLE "22:cjc171_12909"
    INDEX 01 04:52:16
  TRACK 219 AUDIO
    TITLE "0:"
    INDEX 01 04:54:36
  TRACK 220 AUDIO
    TITLE "23:cjc171_12910"
    INDEX 01 04:54:56
  TRACK 221 AUDIO
    TITLE "0:"
    INDEX 01 04:57:03
  TRACK 222 AUDIO
    TITLE "19:cjc171_12911"
    INDEX 01 04:58:01
  TRACK 223 AUDIO
    TITLE "0:"
    INDEX 01 04:59:22
  TRACK 224 AUDIO
    TITLE "20:cjc171_12912"
    INDEX 01 04:59:61
  TRACK 225 AUDIO
    TITLE "0:"
    INDEX 01 05:01:66
  TRACK 226 AUDIO
    TITLE "21:cjc171_12913"
    INDEX 01 05:02:63
  TRACK 227 AUDIO
    TITLE "0:"
    INDEX 01 05:05:01
  TRACK 228 AUDIO
    TITLE "22:cjc171_12914"
    INDEX 01 05:05:36
  TRACK 229 AUDIO
    TITLE "0:"
    INDEX 01 05:07:59
  TRACK 230 AUDIO
    TITLE "23:cjc171_12915"
    INDEX 01 05:08:01
  TRACK 231 AUDIO
    TITLE "0:"
    INDEX 01 05:10:24
  TRACK 232 AUDIO
    TITLE "19:cjc171_12916"
    INDEX 01 05:11:17
  TRACK 233 AUDIO
    TITLE "0:"
    INDEX 01 05:12:34
  TRACK 234 AUDIO
    TITLE "20:cjc171_12917"
    INDEX 01 05:12:70
  TRACK 235 AUDIO
    TITLE "0:"
    INDEX 01 05:16:05
  TRACK 236 AUDIO
    TITLE "21:cjc171_12918"
    INDEX 01 05:17:04
  TRACK 237 AUDIO
    TITLE "0:"
    INDEX 01 05:18:60
  TRACK 238 AUDIO
    TITLE "22:cjc171_12919"
    INDEX 01 05:19:27
  TRACK 239 AUDIO
    TITLE "0:"
    INDEX 01 05:21:20
  TRACK 240 AUDIO
    TITLE "23:cjc171_12920"
    INDEX 01 05:21:39
  TRACK 241 AUDIO
    TITLE "0:"
    INDEX 01 05:23:32
  TRACK 242 AUDIO
    TITLE "19:cjc171_12921"
    INDEX 01 05:24:32
  TRACK 243 AUDIO
    TITLE "0:"
    INDEX 01 05:25:49
  TRACK 244 AUDIO
    TITLE "20:cjc171_12922"
    INDEX 01 05:26:15
  TRACK 245 AUDIO
    TITLE "0:"
    INDEX 01 05:27:55
  TRACK 246 AUDIO
    TITLE "21:cjc171_12923"
    INDEX 01 05:28:55
  TRACK 247 AUDIO
    TITLE "0:"
    INDEX 01 05:31:10
  TRACK 248 AUDIO
    TITLE "22:cjc171_12924"
    INDEX 01 05:31:47
  TRACK 249 AUDIO
    TITLE "0:"
    INDEX 01 05:34:01
  TRACK 250 AUDIO
    TITLE "23:cjc171_12925"
    INDEX 01 05:34:30
  TRACK 251 AUDIO
    TITLE "0:"
    INDEX 01 05:36:58
  TRACK 252 AUDIO
    TITLE "19:cjc171_12926"
    INDEX 01 05:37:62
  TRACK 253 AUDIO
    TITLE "0:"
    INDEX 01 05:39:06
  TRACK 254 AUDIO
    TITLE "20:cjc171_12927"
    INDEX 01 05:39:45
  TRACK 255 AUDIO
    TITLE "0:"
    INDEX 01 05:41:57
  TRACK 256 AUDIO
    TITLE "21:cjc171_12928"
    INDEX 01 05:42:55
  TRACK 257 AUDIO
    TITLE "0:"
    INDEX 01 05:44:19
  TRACK 258 AUDIO
    TITLE "22:cjc171_12929"
    INDEX 01 05:44:48
  TRACK 259 AUDIO
    TITLE "0:"
    INDEX 01 05:46:18
  TRACK 260 AUDIO
    TITLE "23:cjc171_12930"
    INDEX 01 05:46:41
  TRACK 261 AUDIO
    TITLE "0:"
    INDEX 01 05:48:13
  TRACK 262 AUDIO
    TITLE "19:cjc171_12931"
    INDEX 01 05:49:18
  TRACK 263 AUDIO
    TITLE "0:"
    INDEX 01 05:50:27
  TRACK 264 AUDIO
    TITLE "20:cjc171_12932"
    INDEX 01 05:50:68
  TRACK 265 AUDIO
    TITLE "0:"
    INDEX 01 05:52:02
  TRACK 266 AUDIO
    TITLE "21:cjc171_12933"
    INDEX 01 05:53:02
  TRACK 267 AUDIO
    TITLE "0:"
    INDEX 01 05:55:01
  TRACK 268 AUDIO
    TITLE "22:cjc171_12934"
    INDEX 01 05:55:40
  TRACK 269 AUDIO
    TITLE "0:"
    INDEX 01 05:57:33
  TRACK 270 AUDIO
    TITLE "23:cjc171_12935"
    INDEX 01 05:57:62
  TRACK 271 AUDIO
    TITLE "0:"
    INDEX 01 05:59:55
  TRACK 272 AUDIO
    TITLE "19:cjc171_12936"
    INDEX 01 06:00:55
  TRACK 273 AUDIO
    TITLE "0:"
    INDEX 01 06:02:03
  TRACK 274 AUDIO
    TITLE "20:cjc171_12937"
    INDEX 01 06:02:38
  TRACK 275 AUDIO
    TITLE "0:"
    INDEX 01 06:03:49
  TRACK 276 AUDIO
    TITLE "21:cjc171_12938"
    INDEX 01 06:04:47
  TRACK 277 AUDIO
    TITLE "0:"
    INDEX 01 06:07:29
  TRACK 278 AUDIO
    TITLE "22:cjc171_12939"
    INDEX 01 06:07:63
  TRACK 279 AUDIO
    TITLE "0:"
    INDEX 01 06:10:30
  TRACK 280 AUDIO
    TITLE "23:cjc171_12940"
    INDEX 01 06:10:49
  TRACK 281 AUDIO
    TITLE "0:"
    INDEX 01 06:13:18
  TRACK 282 AUDIO
    TITLE "19:cjc171_12941"
    INDEX 01 06:14:12
  TRACK 283 AUDIO
    TITLE "0:"
    INDEX 01 06:15:33
  TRACK 284 AUDIO
    TITLE "20:cjc171_12942"
    INDEX 01 06:15:70
  TRACK 285 AUDIO
    TITLE "0:"
    INDEX 01 06:18:10
  TRACK 286 AUDIO
    TITLE "21:cjc171_12943"
    INDEX 01 06:19:09
  TRACK 287 AUDIO
    TITLE "0:"
    INDEX 01 06:20:73
  TRACK 288 AUDIO
    TITLE "22:cjc171_12944"
    INDEX 01 06:21:35
  TRACK 289 AUDIO
    TITLE "0:"
    INDEX 01 06:24:02
  TRACK 290 AUDIO
    TITLE "23:cjc171_12945"
    INDEX 01 06:24:22
  TRACK 291 AUDIO
    TITLE "0:"
    INDEX 01 06:26:66
  TRACK 292 AUDIO
    TITLE "19:cjc171_12946"
    INDEX 01 06:27:62
  TRACK 293 AUDIO
    TITLE "0:"
    INDEX 01 06:29:02
  TRACK 294 AUDIO
    TITLE "20:cjc171_12947"
    INDEX 01 06:29:35
  TRACK 295 AUDIO
    TITLE "0:"
    INDEX 01 06:30:52
  TRACK 296 AUDIO
    TITLE "21:cjc171_12948"
    INDEX 01 06:31:53
  TRACK 297 AUDIO
    TITLE "0:"
    INDEX 01 06:33:68
  TRACK 298 AUDIO
    TITLE "22:cjc171_12949"
    INDEX 01 06:34:26
  TRACK 299 AUDIO
    TITLE "0:"
    INDEX 01 06:36:15
  TRACK 300 AUDIO
    TITLE "23:cjc171_12950"
    INDEX 01 06:36:37
  TRACK 301 AUDIO
    TITLE "0:"
    INDEX 01 06:38:26
